<svg xmlns="http://www.w3.org/2000/svg" width="1409" height="1765" viewBox="0 0 1409 1765" fill="none"><path d="M753.996 0C763.553 2.29815 781.178 1.2631 791.685 1.56543C831.157 2.70142 891.985 4.97596 925.396 26.0186C948.332 40.4656 951.042 56.52 956.638 81.0713L965.278 118.978C995.515 134.023 1024.79 148.642 1053.28 167.005C1155.48 233.657 1236.52 328.114 1286.86 439.262C1356.38 593.448 1362.15 768.86 1302.92 927.283C1242.81 1087.11 1121.31 1216.28 965.453 1286.03C811.616 1354.47 637.048 1359.73 479.37 1300.67C319.503 1240.21 190.395 1118.4 120.727 962.324C52.1523 807.224 47.6746 631.302 108.27 472.914C170.477 310.717 293.147 186.527 451.078 115.962C457.186 95.6446 459.744 60.4786 471.081 44.0557C495.401 8.82706 552 6.20653 590.642 3.6123C617.564 1.80492 644.496 1.31524 671.461 0.62793C682.18 0.354728 694.74 2.18242 705.143 0.121094C705.328 0.0843133 705.511 0.0403886 705.697 0H753.996ZM978.181 174.346C980.648 184.957 983.379 195.57 985.562 206.238C1010.51 230.978 1034.82 256.35 1058.47 282.333C1071.59 296.899 1086.08 312.367 1095.98 329.383C1099.35 335.158 1102.22 341.521 1102.26 348.331C1102.3 354.957 1100.13 361.501 1095.29 366.18C1090.46 370.848 1084.53 373.04 1077.87 372.763C1069.85 372.428 1061.86 370.201 1053.92 369.065C1042.72 367.465 1031.36 366.535 1020.09 365.511L1020.17 397.39C1044.98 399.753 1066.38 408.283 1082.65 427.955C1100.89 450.022 1102.38 473.421 1102.4 500.684C1102.41 509.856 1102.76 519.303 1101.86 528.433C1099.59 551.558 1088.88 572.721 1070.72 587.41C1054.94 600.168 1035.99 606.005 1015.85 606.119C1005.52 646.274 981.017 680.344 945.199 701.468C902.072 726.901 859.2 722.446 811.348 722.372L811.411 755.735C872.42 755.605 921.128 751.551 969.032 798.876C984.33 813.987 995.062 831.463 1003.38 851.182C1015.36 841.608 1027.32 832.127 1038.04 821.124C1095.1 762.582 1112.5 688.433 1121.29 609.524C1121.44 608.171 1121.58 606.816 1121.71 605.461C1125.16 576.266 1123.47 545.806 1148.92 525.7C1159.5 517.338 1172.68 513.126 1186.16 514.701C1198.47 516.139 1208.95 522.175 1216.61 531.889C1234.32 554.35 1233.99 587.104 1230.59 614.199C1224.01 666.716 1215.58 725.426 1195.98 774.522C1183.9 804.773 1166.69 833.893 1148.37 860.736C1190.28 862.094 1232.79 868.651 1273.66 877.86C1281.85 848.793 1288.93 819.864 1293.35 789.942C1312.69 659.654 1288.25 526.632 1223.85 411.732C1175.96 326.565 1107.96 254.415 1025.77 201.584C1012.41 192.971 992.873 179.778 978.181 174.346ZM437.743 170.594C294 244.789 186.659 367.991 137.3 522.594C106.241 619.874 102.332 721.895 121.465 821.891C154.219 818.74 187.143 817.694 220.031 818.759L220.06 752.166C209.599 752.229 184.782 755.376 177.13 747.645C174.362 744.82 172.942 740.942 173.23 736.998C173.878 727.201 206.672 676.193 213.61 663.066C203.587 663.138 184.708 665.924 177.041 658.591C174.255 655.925 172.894 651.821 173.079 648.008C173.191 645.69 173.952 643.837 174.955 641.774C180.284 630.806 224.432 552.948 229.79 548.34C232.609 545.915 236.74 544.576 240.442 545.03C245.432 545.643 248.366 548.477 251.197 552.357C262.402 567.719 274.316 591.808 284.061 608.842C289.574 618.48 298.488 631.18 302.684 641.014C304.062 644.242 305.007 647.767 304.408 651.294C303.49 656.703 299.666 659.756 295.381 662.586C284.925 663.338 274.389 663.099 263.911 663.075C270.529 674.263 277.046 685.508 283.461 696.812C288.829 705.95 307.215 732.036 304.547 742.292C303.708 745.518 300.859 747.886 297.984 749.306C287.167 754.644 269.461 752.2 257.528 752.138L257.581 821.006C308.451 824.019 360.628 834.495 409.335 849.295C425.766 811.405 453.775 781.849 492.497 766.384C527.018 752.598 564.264 755.658 600.646 755.75L600.641 722.371C536.747 722.465 486.478 727.814 436.624 678.253C416.382 658.13 403.366 633.602 395.996 606.163C371.769 605.564 350.141 597.786 333.174 579.975C307.058 552.56 308.594 517.294 309.688 482.115C310.423 458.516 319.055 436.779 336.373 420.437C352.119 405.578 370.44 399.414 391.586 397.392C391.603 386.319 391.501 375.23 392.132 364.173C378.239 366.05 348.857 373.272 336.836 372.335C331.658 371.93 326.158 370.02 321.952 366.944C316.951 363.285 314.291 358.198 313.458 352.115C311.326 336.554 321.973 322.051 330.979 310.443C359.741 273.376 396.035 238.362 430.15 206.123C432.61 196.022 438.007 180.663 437.743 170.594Z" fill="#133F45"></path><path d="M593.889 350.296C670.691 349.063 747.512 350.08 824.253 353.343C874.8 355.373 925.709 357.457 976.086 362.092C977.66 385.321 976.404 409.41 976.408 432.718L976.516 561.915C976.48 595.069 968.336 623.657 944.119 647.536C907.537 683.609 865.812 679.047 819.118 678.923L631.808 678.907L573.215 678.979C561.192 679.004 549.008 679.425 537.011 678.588C507.947 676.728 480.853 663.259 461.825 641.21C450.047 627.646 441.867 611.339 438.036 593.789C434.225 575.747 435.152 557.072 435.183 538.745L435.194 483.634C435.212 443.063 433.413 398.826 436.253 358.73C456.215 357.682 476.182 355.469 496.155 354.226C528.704 352.283 561.289 350.974 593.889 350.296Z" fill="#638285"></path><path d="M623.545 552.484C638.536 551.562 647.729 562.524 660.213 569.118C673.812 576.302 687.905 580.275 703.292 580.714C721.954 581.244 741.018 575.501 757.236 566.41C761.97 563.755 766.49 559.884 771.503 557.867C774.987 556.457 778.792 556.035 782.498 556.649C788.562 557.592 794.338 561.179 797.713 566.329C800.899 571.196 801.67 577.97 800.435 583.602C798.607 591.928 791.637 596.333 785.01 600.644C776.582 605.697 767.942 610.232 758.807 613.871C723.319 628.284 683.497 627.651 648.484 612.12C634.973 606.211 612.754 595.386 607.352 580.387C605.512 575.28 605.348 569.602 607.732 564.641C610.741 558.377 617.239 554.616 623.545 552.484Z" fill="#133F45"></path><path d="M834.021 414.648C841.152 414.395 846.916 414.963 853.29 418.422C865.201 424.889 872.49 437.79 876.023 450.477C881.235 469.203 879.593 491.454 869.82 508.467C863.81 518.933 855.632 525.974 843.939 529.126C836.371 530.068 829.306 528.801 822.706 524.943C810.928 518.057 803.886 504.607 800.65 491.766C795.937 473.067 797.917 450.915 808.037 434.248C814.242 424.03 822.439 417.569 834.021 414.648Z" fill="#133F45"></path><path d="M566.953 414.631C574.346 414.369 580.342 415.023 586.881 418.731C598.629 425.392 605.757 438.345 609.196 451.013C614.255 469.646 612.517 491.66 602.812 508.55C596.823 518.973 588.714 525.891 577.103 529.092C569.719 529.971 563.036 528.99 556.5 525.368C544.862 518.921 537.725 506.21 534.21 493.768C528.934 475.089 530.586 452.582 540.285 435.576C546.518 424.647 554.829 417.887 566.953 414.631Z" fill="#133F45"></path><path d="M173.876 862.209C188.806 860.616 205.712 861.717 220.692 862.284C296.351 864.939 371.087 879.762 442.031 906.184C620.07 972.8 763.877 1108.16 841.138 1281.85C826.112 1285.69 810.767 1288.38 795.451 1290.76C745.765 1298.91 695.841 1298.9 645.811 1294.92C637.958 1279.99 629.647 1265.3 620.888 1250.88C533.503 1107.61 400.706 997.685 243.634 938.607C211.86 926.652 179.514 917.505 146.573 909.474C140.833 894.809 136.323 879.675 131.783 864.606C145.792 863.447 159.827 862.647 173.876 862.209Z" fill="#69885F"></path><path d="M550.805 799.28L764.7 799.253L831.692 799.217C846.407 799.217 861.364 798.682 876.017 800.187C887.024 801.318 898.228 804.612 908.302 809.155C936.294 821.778 954.315 845.066 964.874 873.237C907.34 883.597 850.611 902.532 797.447 926.662C755.617 945.07 716.012 968.755 678.435 994.642C611.428 936.574 533.413 894.495 451.035 862.793C455.953 851.884 462.589 841.835 470.691 833.028C492.374 809.651 519.726 800.604 550.805 799.28Z" fill="#638285"></path><path d="M1081.5 903.677C1132.72 900.402 1186.48 905.641 1236.8 914.899C1242.64 915.972 1253.17 916.776 1258.16 919.809C1258 921.642 1258.17 921.792 1256.48 922.786C1249.91 926.657 1209.4 936.553 1199.57 939.639C1176.13 947.054 1153.09 955.678 1130.54 965.476C1028.45 1009.68 937.448 1076 864.108 1159.65C856.181 1168.46 848.762 1177.77 841.195 1186.89C805.629 1126.6 761.952 1073.24 711.91 1024.47C825.1 950.384 945.777 908.973 1081.5 903.677Z" fill="#69885F"></path><path d="M667.293 44.4162C683.861 43.5741 700.569 44.3765 717.157 44.3265C761.708 44.1919 805.97 44.604 850.304 49.5251C869.228 51.6256 896.742 54.2735 909.366 70.0841C911.684 84.8981 915.872 99.789 919.293 114.397L937.664 192.763C897.128 188.133 856.439 184.954 815.675 183.229C793.819 182.288 771.884 182.417 750.054 181.275C658.983 180.918 568.809 185.246 478.041 192.487C483.962 169.394 489.008 145.994 494.462 122.78C498.577 105.263 503.441 87.6276 506.356 69.8797C506.895 69.2279 507.459 68.5959 508.045 67.9852C531.444 43.7214 632.854 45.2425 667.293 44.4162Z" fill="#69885F"></path><path d="M671.473 225.409C691.393 224.55 711.465 224.844 731.401 224.871C806.682 224.728 881.894 229.516 956.549 239.201C983.95 266.151 1011.6 293.953 1036.28 323.431C1014.25 320.468 991.668 319.341 969.504 317.74C921.083 314.294 872.609 311.609 824.103 309.688C797.455 308.657 770.578 308.701 743.991 307.012C621.464 305.959 500.156 306.076 378.404 321.903C393.46 303.229 411.529 285.861 428.465 268.881C438.743 258.576 448.991 247.262 460.326 238.141C530.833 231.866 600.725 227.626 671.473 225.409Z" fill="#69885F"></path><path d="M167.893 959.994C168.921 960.244 169.947 960.502 170.971 960.769C204.725 969.596 238.211 982.358 269.971 996.676C404.848 1057.55 517.303 1159.1 591.581 1287.1C566.209 1281.79 541.261 1275.52 516.646 1267.34C360.485 1215.43 241.196 1106.21 167.893 959.994Z" fill="#69885F"></path><path d="M1231.03 975.588L1232.14 975.549L1232.68 976.673C1232.11 978.193 1231.45 979.682 1230.72 981.13C1158.14 1120.89 1032.04 1221.12 883.703 1270.3L879.47 1260.63C874.62 1249.86 869.505 1239.22 864.129 1228.7C958.296 1104.39 1082.4 1021.28 1231.03 975.588Z" fill="#69885F"></path><path d="M643.807 723.094L767.825 723.109L767.839 755.015L643.807 755.047V723.094Z" fill="#638285"></path><path d="M1020.17 440.967C1028.76 442.12 1037.1 445.02 1043.83 450.628C1053.01 458.28 1057.48 469.238 1058.55 480.944C1059.24 488.49 1058.93 496.291 1058.92 503.868C1058.89 521.874 1059.23 535.38 1047.09 549.874C1039.23 557.573 1030.85 560.917 1020.11 562.504L1020.17 440.967Z" fill="#638285"></path><path d="M388.296 441.273C389.763 441.295 390.059 441.348 391.327 442.073C392.934 453.841 391.63 467.544 391.636 479.575L391.539 562.829C382.365 561.094 375.458 558.221 367.874 552.768C362.15 547.188 357.698 541.364 355.329 533.623C351.852 522.255 352.101 488.164 354.064 475.922C354.841 470.968 356.473 466.186 358.885 461.789C365.44 450.026 375.751 444.745 388.296 441.273Z" fill="#638285"></path><path d="M1118.76 784.693C1125.02 787.041 1131.48 791.861 1137.29 795.289C1126.11 817.433 1110.87 840.675 1094.8 859.579C1089.4 860.015 1083.88 859.937 1078.46 860.063L1059.72 861.108C1083.58 838.311 1101.7 812.819 1118.76 784.693Z" fill="#638285"></path><path d="M1158.15 659.893C1165.01 661.565 1172.18 662.508 1179.14 663.741C1173.05 694.706 1167.53 725.339 1156.64 755.106L1156.54 755.153C1152.46 755.114 1140.72 746.614 1136.8 744.274C1147.65 717.752 1153.1 687.994 1158.15 659.893Z" fill="#638285"></path><path d="M1179.92 557.365C1181.21 558.327 1182.44 559.324 1183.36 560.674C1193.41 575.431 1188.33 603.765 1185.55 620.62L1174.73 618.628C1171.24 618.159 1167.7 617.35 1164.23 616.705C1166.32 602.627 1166 587.679 1168.94 573.825C1170.55 566.262 1173.4 561.567 1179.92 557.365Z" fill="#638285"></path><path d="M481.457 1390.44L558.154 1390.42L558.231 1525.49C559.834 1523.46 561.456 1521.44 563.1 1519.43C579.927 1498.81 604.319 1485.81 630.81 1483.35C662.624 1480.38 694.297 1490.29 718.747 1510.87C745.599 1533.18 760.668 1568.2 763.792 1602.54C767.692 1645.39 759.976 1688.92 731.848 1722.68C728.939 1726.43 725.525 1729.53 721.949 1732.63C698.177 1753.19 666.405 1765.45 634.701 1762.93C603.625 1760.45 578.288 1747.18 558.085 1723.46L558.213 1758.02L480.363 1758.01L480.388 1475.81C480.382 1464.67 479.1 1397.18 480.521 1391.83C480.663 1391.29 481.144 1390.9 481.457 1390.44ZM633.19 1696.56C651.346 1692.56 666.19 1682.35 676.336 1666.57C688.281 1647.99 690.333 1622.9 685.438 1601.76C681.232 1583.58 670.675 1567.47 654.747 1557.5C641.189 1549.02 628.243 1548.3 612.666 1548.89C594.953 1552.5 580.222 1561.68 570.054 1576.84C557.451 1595.64 554.287 1620.15 558.819 1642.05C562.669 1660.67 573.128 1677.37 589.254 1687.76C602.8 1696.48 617.432 1698.84 633.19 1696.56Z" fill="#133F45"></path><path d="M805.641 1390.59C830.985 1389.11 857.292 1390.38 882.704 1390.5L882.627 1525.83C883.569 1524.38 884.584 1522.96 885.669 1521.6C902.629 1500.13 926.76 1486.45 953.996 1483.52C984.917 1480.23 1015.9 1489.22 1040.23 1508.59C1069.67 1532.38 1084.25 1566.75 1088.19 1603.73C1092.7 1646 1083.33 1689.1 1056.31 1722.56C1054.28 1724.84 1052.07 1727.01 1049.89 1729.14C1028 1750.59 996.193 1763.71 965.465 1763.22C929.795 1762.66 906.787 1748.78 882.646 1724.03L882.745 1758.01L805.332 1757.97L805.355 1505.57L805.291 1429.8C805.274 1417.03 804.223 1403.27 805.641 1390.59ZM956.048 1696.66C973.437 1693.73 988.146 1684.44 998.351 1669.97C1011.23 1651.71 1014.44 1627.63 1010.54 1605.96C1007.2 1587.32 997.416 1570.08 981.661 1559.23C967.603 1549.54 954.008 1548.36 937.444 1548.89C919.245 1552.68 904.141 1561.82 893.89 1577.6C881.446 1596.73 878.564 1620.82 883.291 1642.95C887.267 1661.56 898.135 1678.21 914.346 1688.42C926.81 1696.26 941.59 1698.87 956.048 1696.66Z" fill="#133F45"></path><path d="M348.201 1487.7C373.494 1486.54 399.268 1487.56 424.612 1487.56C425.784 1577.66 424.673 1667.92 424.681 1758.03C399.213 1757.65 373.699 1757.96 348.225 1757.96L348.201 1487.7Z" fill="#133F45"></path><path d="M377.849 1367.03C401.968 1364.18 423.834 1381.41 426.701 1405.53C429.567 1429.65 412.352 1451.52 388.237 1454.41C364.098 1457.29 342.194 1440.06 339.324 1415.91C336.454 1391.78 353.707 1369.88 377.849 1367.03Z" fill="#133F45"></path><path d="M1409 1634.52C1407.36 1640.74 1406.83 1647.53 1405.55 1653.9C1402.14 1670.42 1395.58 1686.12 1386.24 1700.17C1365.36 1732.1 1331.64 1753.57 1294.45 1761.16C1254.76 1769.26 1211.33 1761.86 1177.51 1739.4C1147.08 1719.32 1126.03 1687.84 1119.11 1652.05C1111.83 1614.92 1119.51 1576.41 1140.48 1544.91C1162.03 1513.02 1196.24 1492.35 1233.87 1485.39C1273.85 1478.02 1316.92 1485.93 1350.51 1509.1C1376.23 1526.92 1394.97 1553.09 1403.56 1583.18C1406.19 1592.6 1407.27 1602.23 1409 1611.83V1634.52ZM1264.61 1695.9C1304.6 1694.82 1336.19 1661.58 1335.21 1621.58C1334.24 1581.57 1301.07 1549.91 1261.07 1550.79C1220.93 1551.67 1189.13 1584.97 1190.1 1625.11C1191.08 1665.26 1224.47 1696.98 1264.61 1695.9Z" fill="#133F45"></path><path d="M0 1405.54C26.0325 1404.99 52.1182 1405.33 78.1576 1405.34C78.1586 1456.46 77.1788 1507.75 78.2077 1558.84C108.478 1525.78 138.931 1492.88 169.565 1460.15L202.728 1424.38C208.62 1418.03 214.281 1411.25 220.629 1405.37C252.026 1405.36 283.744 1404.42 315.105 1405.46L216.298 1508.68L184.714 1541.53C180.38 1546.03 176.444 1550.96 171.878 1555.24L272.194 1690.68C287.999 1712.03 307.592 1735.97 321.716 1757.86L228.178 1757.98C214.041 1740 200.885 1721.13 187.414 1702.64L118.796 1608.61C105.124 1622.5 91.9758 1636.79 78.0869 1650.49L78.1638 1758.01C52.2405 1757.99 25.8608 1758.99 0 1757.84V1405.54Z" fill="#133F45"></path></svg>